<svg width="158" height="62" viewBox="0 0 158 62" fill="none" xmlns="http://www.w3.org/2000/svg">
<g filter="url(#filter0_d_5:32)">
<path d="M25.72 25.47C25.8933 25.2967 26.11 25.2317 26.37 25.275C26.6733 25.3183 26.955 25.4267 27.215 25.6C27.475 25.7733 27.67 26.0117 27.8 26.315C27.93 26.575 27.9083 26.8567 27.735 27.16C27.1717 28.85 26.37 30.54 25.33 32.23C24.3333 33.8767 23.185 35.4367 21.885 36.91C20.585 38.3833 19.22 39.7267 17.79 40.94C16.36 42.1533 14.9517 43.15 13.565 43.93C12.915 44.2767 12.2217 44.4067 11.485 44.32C10.7483 44.2333 10.0117 44.0383 9.275 43.735C8.53833 43.3883 7.86667 42.9983 7.26 42.565C6.65333 42.1317 6.155 41.72 5.765 41.33C4.94167 40.4633 4.48667 39.315 4.4 37.885C4.31333 36.4117 4.48667 34.83 4.92 33.14C5.31 31.45 5.91667 29.695 6.74 27.875C7.56333 26.055 8.47333 24.3433 9.47 22.74C10.51 21.1367 11.5933 19.7283 12.72 18.515C13.8467 17.3017 14.9083 16.4133 15.905 15.85C16.5117 15.5467 17.075 15.395 17.595 15.395C18.115 15.3517 18.6567 15.4383 19.22 15.655C19.7833 15.8283 20.3467 16.11 20.91 16.5C21.5167 16.8467 22.1883 17.2367 22.925 17.67C23.965 18.32 24.4417 19.1433 24.355 20.14C24.355 20.6167 24.16 21.4617 23.77 22.675C23.4233 23.8883 22.9033 25.1667 22.21 26.51C21.56 27.81 20.7367 29.045 19.74 30.215C18.7867 31.3417 17.7033 32.1 16.49 32.49C15.6233 32.7067 14.865 32.7717 14.215 32.685C13.565 32.5983 12.85 32.3817 12.07 32.035C11.8533 32.4683 11.615 33.1183 11.355 33.985C11.095 34.8083 10.9 35.6533 10.77 36.52C10.64 37.3867 10.5967 38.1667 10.64 38.86C10.6833 39.51 10.9433 39.8783 11.42 39.965C12.1133 40.095 13.0883 39.7267 14.345 38.86C15.645 37.9933 16.9883 36.8667 18.375 35.48C19.7617 34.05 21.1267 32.4467 22.47 30.67C23.8133 28.8933 24.8967 27.16 25.72 25.47ZM19.22 20.66C18.7867 20.9633 18.2233 21.5483 17.53 22.415C16.88 23.2383 16.23 24.1267 15.58 25.08C14.9733 26.0333 14.4317 26.9217 13.955 27.745C13.5217 28.5683 13.305 29.0883 13.305 29.305C14.085 29.435 14.8 29.1967 15.45 28.59C16.1433 27.9833 16.75 27.225 17.27 26.315C17.8333 25.3617 18.2667 24.365 18.57 23.325C18.9167 22.285 19.1333 21.3967 19.22 20.66ZM76.7023 17.93C76.8757 16.4567 75.7707 15.2217 73.3873 14.225C71.0473 13.185 67.9707 12.47 64.1573 12.08C60.994 17.1933 58.394 22.8267 56.3573 28.98C54.1907 35.35 52.9773 40.8317 52.7173 45.425C52.414 50.0617 53.519 52.5533 56.0323 52.9C55.2957 53.55 54.299 53.7883 53.0423 53.615C51.829 53.485 50.5723 52.8133 49.2723 51.6C48.1023 50.5167 47.2573 48.7617 46.7373 46.335C46.4773 43.865 46.759 40.7233 47.5823 36.91C47.409 37.0833 47.2357 37.2783 47.0623 37.495C46.9323 37.6683 46.759 37.82 46.5423 37.95C44.4623 40.3333 42.7507 41.8717 41.4073 42.565C39.9773 43.085 38.6123 42.9333 37.3123 42.11C36.0123 41.2433 35.2757 40.2467 35.1023 39.12C35.0157 38.2967 35.124 37.3217 35.4273 36.195C35.514 35.5883 35.6223 35.0033 35.7523 34.44C35.9257 33.8767 36.099 33.335 36.2723 32.815C35.9257 33.2917 35.5357 33.79 35.1023 34.31C34.7123 34.83 34.279 35.3933 33.8023 36C32.979 37.2567 32.069 38.47 31.0723 39.64C30.119 40.7667 29.079 41.8717 27.9523 42.955C27.3023 43.4317 26.4357 43.54 25.3523 43.28C24.2257 43.02 23.1857 42.5217 22.2323 41.785C21.3223 41.0483 20.889 40.2467 20.9323 39.38C21.1057 37.6033 21.4957 35.8267 22.1023 34.05C22.709 32.23 23.5107 30.3883 24.5073 28.525C25.504 26.6183 26.5657 24.95 27.6923 23.52C28.819 22.0467 29.9673 20.79 31.1373 19.75C32.5673 18.71 33.824 18.3633 34.9073 18.71C35.9907 18.97 37.1173 19.5333 38.2873 20.4C38.504 20.53 38.7207 20.6817 38.9373 20.855C39.154 20.985 39.3707 21.115 39.5873 21.245C39.8473 20.8983 40.1073 20.595 40.3673 20.335C40.6707 20.0317 40.9523 19.7067 41.2123 19.36C41.3857 19.1 41.5807 18.84 41.7973 18.58C42.0573 18.32 42.3173 18.06 42.5773 17.8C43.0107 17.3233 43.704 17.215 44.6573 17.475C45.5673 17.7783 46.369 18.2767 47.0623 18.97C47.7123 19.6633 47.8857 20.3567 47.5823 21.05C44.6357 26.2067 42.7723 30.1283 41.9923 32.815C41.2123 35.545 41.1473 36.975 41.7973 37.105C42.8807 37.0183 44.1157 36 45.5023 34.05C46.239 33.0533 46.954 31.9917 47.6473 30.865C48.384 29.7383 49.1207 28.5467 49.8573 27.29C50.5073 26.0333 51.0707 24.9067 51.5473 23.91C52.0673 22.87 52.4573 21.9817 52.7173 21.245C53.4107 19.5983 54.104 17.995 54.7973 16.435C55.534 14.875 56.2707 13.3367 57.0073 11.82C49.3373 11.8633 43.0323 13.575 38.0923 16.955C37.7457 17.215 37.1823 17.15 36.4023 16.76C36.0557 16.5433 35.709 16.305 35.3623 16.045C35.059 15.7417 34.7557 15.395 34.4523 15.005C33.759 14.3117 33.3473 13.5967 33.2173 12.86C33.044 12.21 33.3257 11.6683 34.0623 11.235C37.9623 9.76167 42.0357 8.67833 46.2823 7.985C50.529 7.29167 54.949 6.98833 59.5423 7.075C60.409 5.73166 61.189 4.58333 61.8823 3.63C62.5757 2.67667 63.2473 1.89666 63.8973 1.29C64.4607 0.943331 65.0673 0.921664 65.7173 1.225C66.324 1.485 66.9307 1.85333 67.5373 2.33C67.7107 2.50333 67.8407 2.61166 67.9273 2.655C68.3173 2.87167 68.6423 3.13167 68.9023 3.435C69.1623 3.73833 69.3573 4.02 69.4873 4.28C69.7907 4.75666 69.7473 5.21166 69.3573 5.645C68.6207 6.295 67.9923 6.945 67.4723 7.595C68.859 7.76833 70.094 7.985 71.1773 8.245C72.2607 8.46166 73.214 8.72166 74.0373 9.025C75.3373 9.58833 76.3123 10.6067 76.9623 12.08C77.309 12.8167 77.5473 13.51 77.6773 14.16C77.8507 14.81 77.9373 15.46 77.9373 16.11C77.9373 17.3233 77.5257 17.93 76.7023 17.93ZM36.5323 25.73C36.5757 25.6433 36.619 25.5133 36.6623 25.34C36.7057 25.1667 36.7273 24.9717 36.7273 24.755C36.7273 24.365 36.6407 23.9967 36.4673 23.65C36.3807 23.26 36.1423 23 35.7523 22.87C35.4057 22.87 34.994 23.0867 34.5173 23.52C33.5207 24.6467 32.6107 25.8167 31.7873 27.03C30.964 28.2433 30.2057 29.5433 29.5123 30.93C28.1257 33.7467 27.4107 35.7183 27.3673 36.845C27.9307 36.3683 28.5807 35.74 29.3173 34.96C30.054 34.1367 30.9207 33.1183 31.9173 31.905C32.8707 30.735 33.7157 29.63 34.4523 28.59C35.2323 27.55 35.9257 26.5967 36.5323 25.73ZM96.4857 26.64C96.659 26.7267 96.8107 26.7917 96.9407 26.835C97.0707 26.8783 97.2007 26.9433 97.3307 27.03C97.4607 27.16 97.569 27.2683 97.6557 27.355C97.7857 27.4417 97.894 27.5283 97.9807 27.615C98.1107 27.8317 98.154 27.9833 98.1107 28.07C97.5474 29.1967 96.8974 30.4533 96.1607 31.84C95.4674 33.2267 94.644 34.7433 93.6907 36.39C91.7407 39.6833 89.7907 41.915 87.8407 43.085C87.1474 43.4317 86.2157 43.54 85.0457 43.41C84.5257 43.28 84.0274 43.1283 83.5507 42.955C83.1174 42.7817 82.6624 42.5433 82.1857 42.24C81.319 41.7633 80.8207 41.2 80.6907 40.55C80.4307 39.5533 80.539 38.0367 81.0157 36C81.2324 35.0033 81.4707 34.0283 81.7307 33.075C82.034 32.0783 82.3374 31.0817 82.6407 30.085C82.9874 29.0883 83.3124 28.2 83.6157 27.42C83.9624 26.5967 84.2657 25.8817 84.5257 25.275C83.659 26.1417 82.7707 27.1383 81.8607 28.265C80.994 29.3483 80.1274 30.6267 79.2607 32.1C78.3507 33.53 77.5057 35.025 76.7257 36.585C75.989 38.145 75.3174 39.7483 74.7107 41.395C74.5807 41.785 74.169 41.9367 73.4757 41.85C72.869 41.85 72.1974 41.6333 71.4607 41.2C70.854 40.81 70.5074 40.29 70.4207 39.64C70.4207 38.7733 70.6157 37.495 71.0057 35.805C71.2224 34.895 71.4174 34.0067 71.5907 33.14C71.8074 32.2733 72.024 31.4283 72.2407 30.605C72.4574 29.7383 72.6524 29.045 72.8257 28.525C72.999 28.005 73.129 27.615 73.2157 27.355C72.0024 28.6117 70.3774 30.9733 68.3407 34.44C67.214 36.2167 66.1524 37.9717 65.1557 39.705C64.2024 41.395 63.2707 43.1067 62.3607 44.84C62.1007 45.2733 61.559 45.4683 60.7357 45.425C60.3024 45.3383 59.9124 45.2517 59.5657 45.165C59.1757 45.035 58.8074 44.8617 58.4607 44.645C57.7674 44.2983 57.3774 43.8433 57.2907 43.28C57.5507 40.2467 58.4607 36.3683 60.0207 31.645C60.844 29.2617 61.624 27.2033 62.3607 25.47C63.1407 23.7367 63.9207 22.3067 64.7007 21.18C64.9174 20.8333 65.3507 20.7033 66.0007 20.79C66.2607 20.8767 66.5424 20.9633 66.8457 21.05C67.149 21.1367 67.4524 21.2667 67.7557 21.44C68.059 21.6567 68.319 21.8517 68.5357 22.025C68.7957 22.1983 69.0124 22.3933 69.1857 22.61C69.5757 23.0433 69.7057 23.4117 69.5757 23.715C69.229 24.1483 68.8824 24.6683 68.5357 25.275C68.189 25.8817 67.7774 26.6183 67.3007 27.485C66.434 29.045 65.589 30.9083 64.7657 33.075C65.1557 32.4683 65.6107 31.7533 66.1307 30.93C66.694 30.0633 67.3224 29.11 68.0157 28.07C68.709 27.03 69.4024 26.0117 70.0957 25.015C70.789 23.975 71.504 23 72.2407 22.09C73.5407 20.14 74.6457 18.8183 75.5557 18.125C76.0757 17.735 76.704 17.67 77.4407 17.93C77.8307 18.0167 78.199 18.1683 78.5457 18.385C78.9357 18.5583 79.2607 18.7967 79.5207 19.1C80.2574 19.6633 80.5607 20.2267 80.4307 20.79C80.3874 20.8767 80.344 21.0067 80.3007 21.18C80.3007 21.3533 80.2574 21.57 80.1707 21.83C80.084 22.0467 79.9757 22.3067 79.8457 22.61C79.759 22.87 79.6507 23.1517 79.5207 23.455C79.3907 23.9317 79.239 24.3867 79.0657 24.82C78.9357 25.2533 78.8274 25.665 78.7407 26.055C78.4374 26.835 78.3074 27.3117 78.3507 27.485C78.4374 27.3983 78.524 27.2683 78.6107 27.095C78.7407 26.9217 78.914 26.705 79.1307 26.445C79.6074 25.7083 80.1707 24.9283 80.8207 24.105C81.514 23.2383 82.294 22.2417 83.1607 21.115C84.894 18.9917 86.389 17.4967 87.6457 16.63C88.859 15.8933 90.029 16.1533 91.1557 17.41C91.5024 17.7567 91.784 18.1033 92.0007 18.45C92.2607 18.7533 92.434 19.0567 92.5207 19.36C92.7807 19.9667 92.6724 20.725 92.1957 21.635C91.849 22.285 91.4807 23.0867 91.0907 24.04C90.7007 24.95 90.2457 26.0333 89.7257 27.29C89.249 28.5467 88.7724 29.7817 88.2957 30.995C87.8624 32.165 87.4507 33.3567 87.0607 34.57C86.2374 36.9967 85.804 38.73 85.7607 39.77C87.624 38.73 89.3574 36.91 90.9607 34.31C91.8274 33.01 92.6074 31.7533 93.3007 30.54C94.0374 29.3267 94.7307 28.135 95.3807 26.965V26.835L96.4857 26.64ZM113.699 34.115C114.045 34.0717 114.284 34.2017 114.414 34.505C114.587 34.765 114.674 35.09 114.674 35.48C114.674 35.8267 114.587 36.1517 114.414 36.455C114.284 36.7583 114.11 36.91 113.894 36.91C112.897 37.04 111.965 37.0833 111.099 37.04C110.232 36.9967 109.214 36.78 108.044 36.39C107.827 36.8233 107.545 37.43 107.199 38.21C106.852 38.9467 106.419 39.7267 105.899 40.55C105.422 41.33 104.837 42.11 104.144 42.89C103.494 43.6267 102.757 44.2117 101.934 44.645C101.24 45.035 100.352 45.165 99.2685 45.035C98.2285 44.8617 97.1668 44.5367 96.0835 44.06C95.0435 43.5833 94.1118 42.9767 93.2885 42.24C92.4652 41.5033 91.9452 40.7017 91.7285 39.835C91.3818 38.665 91.3168 37.3867 91.5335 36C91.7502 34.6133 92.0968 33.27 92.5735 31.97C93.0502 30.6267 93.6352 29.4133 94.3285 28.33C94.9785 27.2033 95.6068 26.3583 96.2135 25.795C96.4302 25.5783 96.6685 25.3833 96.9285 25.21C97.1885 25.0367 97.4268 24.8417 97.6435 24.625C97.4702 23.715 97.3618 22.805 97.3185 21.895C97.2752 20.9417 97.4918 20.0317 97.9685 19.165C98.3585 18.4717 99.1602 18.0383 100.374 17.865C101.63 17.6483 102.93 17.735 104.274 18.125C105.66 18.515 106.917 19.23 108.044 20.27C109.17 21.31 109.842 22.6967 110.059 24.43C110.275 26.0333 110.254 27.5717 109.994 29.045C109.777 30.5183 109.495 32.035 109.149 33.595C109.539 33.855 110.167 34.05 111.034 34.18C111.944 34.31 112.832 34.2883 113.699 34.115ZM97.1885 41.59C98.8785 40.5933 100.114 39.4233 100.894 38.08C101.717 36.7367 102.432 35.3067 103.039 33.79C101.522 32.75 100.352 31.4283 99.5285 29.825C99.3118 30.0417 99.0302 30.6267 98.6835 31.58C98.3368 32.5333 97.9902 33.6383 97.6435 34.895C97.3402 36.1083 97.1235 37.3433 96.9935 38.6C96.8635 39.8133 96.9285 40.81 97.1885 41.59ZM104.014 30.085C104.274 29.4783 104.447 28.7633 104.534 27.94C104.62 27.0733 104.62 26.2283 104.534 25.405C104.49 24.5383 104.382 23.78 104.209 23.13C104.079 22.4367 103.927 21.9383 103.754 21.635C103.06 22.5017 102.735 23.6933 102.779 25.21C102.865 26.7267 103.277 28.3517 104.014 30.085ZM129.927 31.19C129.97 31.58 130.057 31.8617 130.187 32.035C130.36 32.165 130.512 32.2733 130.642 32.36C130.815 32.4033 130.945 32.4683 131.032 32.555C131.162 32.5983 131.205 32.7283 131.162 32.945C131.075 33.2917 130.685 33.4867 129.992 33.53C129.342 33.5733 128.627 33.5083 127.847 33.335C127.067 33.1617 126.33 32.9233 125.637 32.62C124.987 32.2733 124.618 31.8833 124.532 31.45C124.315 30.7133 124.228 29.9333 124.272 29.11C124.315 28.2433 124.315 27.3767 124.272 26.51C121.975 29.0233 120.003 31.7533 118.357 34.7C116.71 37.6033 115.41 41.005 114.457 44.905C114.327 45.3817 113.98 45.6417 113.417 45.685C112.81 45.685 112.182 45.555 111.532 45.295C110.882 45.035 110.318 44.6883 109.842 44.255C109.365 43.8217 109.17 43.3667 109.257 42.89C109.647 40.55 110.21 38.1017 110.947 35.545C111.64 32.9883 112.463 30.475 113.417 28.005C114.37 25.4917 115.388 23.1083 116.472 20.855C117.555 18.6017 118.617 16.5867 119.657 14.81C119.873 14.42 120.177 14.1817 120.567 14.095C120.957 14.0083 121.368 14.03 121.802 14.16C122.798 14.5067 123.492 14.94 123.882 15.46C124.315 15.9367 124.38 16.5 124.077 17.15C123.513 18.3633 122.907 19.6417 122.257 20.985C121.607 22.285 120.935 23.78 120.242 25.47C120.892 24.56 121.477 23.715 121.997 22.935C122.473 22.285 122.885 21.6567 123.232 21.05C123.622 20.4433 123.86 20.075 123.947 19.945C124.337 19.3383 124.662 19.0133 124.922 18.97C125.182 18.8833 125.615 18.97 126.222 19.23C127.435 19.7067 128.345 20.0533 128.952 20.27C129.558 20.4867 129.97 20.7683 130.187 21.115C130.403 21.4617 130.468 21.96 130.382 22.61C130.295 23.26 130.187 24.2567 130.057 25.6C129.797 27.55 129.753 29.4133 129.927 31.19ZM151.721 25.47C151.894 25.2967 152.111 25.2317 152.371 25.275C152.674 25.3183 152.956 25.4267 153.216 25.6C153.476 25.7733 153.671 26.0117 153.801 26.315C153.931 26.575 153.909 26.8567 153.736 27.16C153.173 28.85 152.371 30.54 151.331 32.23C150.334 33.8767 149.186 35.4367 147.886 36.91C146.586 38.3833 145.221 39.7267 143.791 40.94C142.361 42.1533 140.953 43.15 139.566 43.93C138.916 44.2767 138.223 44.4067 137.486 44.32C136.749 44.2333 136.013 44.0383 135.276 43.735C134.539 43.3883 133.868 42.9983 133.261 42.565C132.654 42.1317 132.156 41.72 131.766 41.33C130.943 40.4633 130.488 39.315 130.401 37.885C130.314 36.4117 130.488 34.83 130.921 33.14C131.311 31.45 131.918 29.695 132.741 27.875C133.564 26.055 134.474 24.3433 135.471 22.74C136.511 21.1367 137.594 19.7283 138.721 18.515C139.848 17.3017 140.909 16.4133 141.906 15.85C142.513 15.5467 143.076 15.395 143.596 15.395C144.116 15.3517 144.658 15.4383 145.221 15.655C145.784 15.8283 146.348 16.11 146.911 16.5C147.518 16.8467 148.189 17.2367 148.926 17.67C149.966 18.32 150.443 19.1433 150.356 20.14C150.356 20.6167 150.161 21.4617 149.771 22.675C149.424 23.8883 148.904 25.1667 148.211 26.51C147.561 27.81 146.738 29.045 145.741 30.215C144.788 31.3417 143.704 32.1 142.491 32.49C141.624 32.7067 140.866 32.7717 140.216 32.685C139.566 32.5983 138.851 32.3817 138.071 32.035C137.854 32.4683 137.616 33.1183 137.356 33.985C137.096 34.8083 136.901 35.6533 136.771 36.52C136.641 37.3867 136.598 38.1667 136.641 38.86C136.684 39.51 136.944 39.8783 137.421 39.965C138.114 40.095 139.089 39.7267 140.346 38.86C141.646 37.9933 142.989 36.8667 144.376 35.48C145.763 34.05 147.128 32.4467 148.471 30.67C149.814 28.8933 150.898 27.16 151.721 25.47ZM145.221 20.66C144.788 20.9633 144.224 21.5483 143.531 22.415C142.881 23.2383 142.231 24.1267 141.581 25.08C140.974 26.0333 140.433 26.9217 139.956 27.745C139.523 28.5683 139.306 29.0883 139.306 29.305C140.086 29.435 140.801 29.1967 141.451 28.59C142.144 27.9833 142.751 27.225 143.271 26.315C143.834 25.3617 144.268 24.365 144.571 23.325C144.918 22.285 145.134 21.3967 145.221 20.66Z" fill="white"/>
</g>
<defs>
<filter id="filter0_d_5:32" x="0.27002" y="0.769989" width="157.726" height="61.105" filterUnits="userSpaceOnUse" color-interpolation-filters="sRGB">
<feFlood flood-opacity="0" result="BackgroundImageFix"/>
<feColorMatrix in="SourceAlpha" type="matrix" values="0 0 0 0 0 0 0 0 0 0 0 0 0 0 0 0 0 0 127 0" result="hardAlpha"/>
<feOffset dy="4"/>
<feGaussianBlur stdDeviation="2"/>
<feComposite in2="hardAlpha" operator="out"/>
<feColorMatrix type="matrix" values="0 0 0 0 0 0 0 0 0 0 0 0 0 0 0 0 0 0 0.25 0"/>
<feBlend mode="normal" in2="BackgroundImageFix" result="effect1_dropShadow_5:32"/>
<feBlend mode="normal" in="SourceGraphic" in2="effect1_dropShadow_5:32" result="shape"/>
</filter>
</defs>
</svg>
