<svg width="15" height="21" viewBox="0 0 15 21" fill="none" xmlns="http://www.w3.org/2000/svg">
<path d="M14.5 8.84063C14.5 11.186 13.6878 14.1427 12.3668 16.5074C11.7077 17.6872 10.9348 18.6963 10.0966 19.4049C9.25888 20.113 8.38263 20.5 7.5 20.5C6.61737 20.5 5.74112 20.113 4.90345 19.4049C4.06518 18.6963 3.29227 17.6872 2.6332 16.5074C1.31216 14.1427 0.5 11.186 0.5 8.84063C0.5 4.15398 3.70794 0.5 7.5 0.5C11.2921 0.5 14.5 4.15398 14.5 8.84063Z" stroke="#F07567"/>
<path d="M10.75 8C10.75 9.96388 9.26502 11.5 7.5 11.5C5.73498 11.5 4.25 9.96388 4.25 8C4.25 6.03612 5.73498 4.5 7.5 4.5C9.26502 4.5 10.75 6.03612 10.75 8Z" stroke="#F07567"/>
</svg>
