<svg width="20" height="22" viewBox="0 0 20 22" fill="none" xmlns="http://www.w3.org/2000/svg">
<path fill-rule="evenodd" clip-rule="evenodd" d="M13.5131 12.9412C13.6199 12.8112 13.7225 12.6775 13.8208 12.5404C14.8906 11.0485 15.452 9.14744 15.2645 7.1477C14.8701 2.94205 11.3128 -0.107318 7.31899 0.336735C3.32517 0.780789 0.407229 4.55012 0.80159 8.75576C1.19595 12.9614 4.75328 16.0108 8.7471 15.5667C9.83983 15.4452 10.852 15.0748 11.7379 14.5146L17.5887 21.2454L19.024 19.8392L13.2714 13.2215C13.3541 13.1301 13.4347 13.0366 13.5131 12.9412ZM8.65373 14.5711C5.255 14.9489 2.14275 12.3484 1.7955 8.64525C1.44826 4.94208 4.01362 1.71029 7.41235 1.3324C10.8111 0.954514 13.9233 3.55504 14.2706 7.25821C14.435 9.01189 13.9425 10.6694 13.0139 11.9644C11.9898 13.3925 10.4428 14.3721 8.65373 14.5711Z" fill="#DDDDDD"/>
</svg>
