<svg width="52" height="9" viewBox="0 0 52 9" fill="none" xmlns="http://www.w3.org/2000/svg">
<path opacity="0.35" d="M33.3076 2.66874C33.3076 1.47213 34.2777 0.502075 35.4743 0.502075H47.1906C48.3872 0.502075 49.3572 1.47213 49.3572 2.66874V6.11854C49.3572 7.31516 48.3872 8.28521 47.1906 8.28521H35.4743C34.2777 8.28521 33.3076 7.31516 33.3076 6.11854V2.66874Z" stroke="#F1F1F1"/>
<path opacity="0.4" d="M50.6322 2.84366V5.94359C51.2559 5.68104 51.6614 5.07029 51.6614 4.39362C51.6614 3.71696 51.2559 3.1062 50.6322 2.84366Z" fill="white"/>
<path d="M34.3576 2.88537C34.3576 2.14899 34.9546 1.55203 35.6909 1.55203H46.974C47.7103 1.55203 48.3073 2.14899 48.3073 2.88537V5.9019C48.3073 6.63828 47.7103 7.23524 46.974 7.23524H35.6909C34.9546 7.23524 34.3576 6.63828 34.3576 5.9019V2.88537Z" fill="white"/>
<path fill-rule="evenodd" clip-rule="evenodd" d="M22.9888 1.76489C24.7061 1.76496 26.3577 2.42481 27.6023 3.60805C27.696 3.6994 27.8458 3.69825 27.9381 3.60547L28.834 2.70132C28.8807 2.65427 28.9068 2.59052 28.9064 2.5242C28.906 2.45788 28.8792 2.39444 28.8319 2.34793C25.5653 -0.782644 20.4118 -0.782644 17.1452 2.34793C17.0978 2.39441 17.071 2.45782 17.0706 2.52415C17.0701 2.59047 17.0961 2.65423 17.1428 2.70132L18.039 3.60547C18.1312 3.69839 18.2811 3.69955 18.3748 3.60805C19.6195 2.42473 21.2713 1.76488 22.9888 1.76489ZM22.9888 4.70645C23.9323 4.7064 24.8422 5.0571 25.5416 5.69042C25.6362 5.78031 25.7852 5.77836 25.8774 5.68603L26.7722 4.78189C26.8194 4.73446 26.8455 4.67012 26.8448 4.60327C26.8442 4.53642 26.8167 4.47263 26.7686 4.42617C24.6388 2.44502 21.3405 2.44502 19.2107 4.42617C19.1626 4.47263 19.1352 4.53645 19.1346 4.60332C19.1339 4.6702 19.1602 4.73453 19.2074 4.78189L20.102 5.68603C20.1942 5.77836 20.3432 5.78031 20.4378 5.69042C21.1367 5.05752 22.0459 4.70684 22.9888 4.70645ZM24.7813 6.68561C24.7827 6.75266 24.7563 6.81729 24.7085 6.86426L23.1606 8.42636C23.1152 8.47227 23.0533 8.49811 22.9888 8.49811C22.9242 8.49811 22.8624 8.47227 22.817 8.42636L21.2688 6.86426C21.221 6.81726 21.1947 6.7526 21.1961 6.68556C21.1975 6.61852 21.2266 6.55503 21.2763 6.51009C22.2649 5.67398 23.7127 5.67398 24.7012 6.51009C24.751 6.55507 24.7799 6.61857 24.7813 6.68561Z" fill="white"/>
<path fill-rule="evenodd" clip-rule="evenodd" d="M12.3997 0.260345H11.6247C11.1967 0.260345 10.8497 0.607317 10.8497 1.03533V7.75184C10.8497 8.17985 11.1967 8.52682 11.6247 8.52682H12.3997C12.8277 8.52682 13.1747 8.17985 13.1747 7.75184V1.03533C13.1747 0.607317 12.8277 0.260345 12.3997 0.260345ZM8.00816 2.06865H8.78314C9.21115 2.06865 9.55812 2.41562 9.55812 2.84363V7.75185C9.55812 8.17986 9.21115 8.52683 8.78314 8.52683H8.00816C7.58015 8.52683 7.23317 8.17986 7.23317 7.75185V2.84363C7.23317 2.41562 7.58015 2.06865 8.00816 2.06865ZM5.16654 3.87692H4.39156C3.96355 3.87692 3.61658 4.22389 3.61658 4.6519V7.75183C3.61658 8.17984 3.96355 8.52681 4.39156 8.52681H5.16654C5.59455 8.52681 5.94152 8.17984 5.94152 7.75183V4.6519C5.94152 4.22389 5.59455 3.87692 5.16654 3.87692ZM1.54996 5.42689H0.774982C0.346971 5.42689 0 5.77386 0 6.20187V7.75183C0 8.17984 0.346971 8.52681 0.774982 8.52681H1.54996C1.97798 8.52681 2.32495 8.17984 2.32495 7.75183V6.20187C2.32495 5.77386 1.97798 5.42689 1.54996 5.42689Z" fill="white"/>
</svg>
