<svg width="13" height="13" viewBox="0 0 13 13" fill="none" xmlns="http://www.w3.org/2000/svg">
<path d="M7.68157 1.65649C7.29395 0.533702 5.70605 0.533701 5.31843 1.65649L4.58789 3.77261C4.4835 4.07498 4.19883 4.27786 3.87894 4.27786H1.65004C0.420871 4.27786 -0.0701594 5.86588 0.944475 6.55969L2.64132 7.72C2.92025 7.91074 3.03719 8.26444 2.92692 8.58385L2.25454 10.5315C1.86152 11.6699 3.14752 12.651 4.14168 11.9712L6.07666 10.6481C6.3319 10.4735 6.6681 10.4735 6.92334 10.6481L8.85832 11.9712C9.85248 12.651 11.1385 11.6699 10.7455 10.5315L10.0731 8.58385C9.96281 8.26444 10.0798 7.91074 10.3587 7.72L12.0555 6.55969C13.0702 5.86588 12.5791 4.27786 11.35 4.27786H9.12106C8.80118 4.27786 8.5165 4.07498 8.41211 3.77261L7.68157 1.65649Z" fill="#F07567" stroke="#E95D4D" stroke-width="0.5"/>
</svg>
